<svg width="1600" height="1200" viewBox="0 0 1600 1200" fill="none" xmlns="http://www.w3.org/2000/svg">
  <defs>
    <linearGradient id="bg" x1="153" y1="89" x2="1426" y2="1115" gradientUnits="userSpaceOnUse">
      <stop stop-color="#05070D"/>
      <stop offset="0.42" stop-color="#0A1020"/>
      <stop offset="1" stop-color="#030303"/>
    </linearGradient>
    <radialGradient id="topGlow" cx="0" cy="0" r="1" gradientUnits="userSpaceOnUse" gradientTransform="translate(731 180) rotate(90) scale(428 786)">
      <stop stop-color="#4F46E5" stop-opacity="0.34"/>
      <stop offset="0.6" stop-color="#4F46E5" stop-opacity="0.08"/>
      <stop offset="1" stop-color="#4F46E5" stop-opacity="0"/>
    </radialGradient>
    <radialGradient id="leftGlow" cx="0" cy="0" r="1" gradientUnits="userSpaceOnUse" gradientTransform="translate(239 325) rotate(29.177) scale(480.905 336.788)">
      <stop stop-color="#173A66" stop-opacity="0.5"/>
      <stop offset="1" stop-color="#173A66" stop-opacity="0"/>
    </radialGradient>
    <radialGradient id="rightGlow" cx="0" cy="0" r="1" gradientUnits="userSpaceOnUse" gradientTransform="translate(1330 305) rotate(145.265) scale(421.379 307.49)">
      <stop stop-color="#1E3A8A" stop-opacity="0.32"/>
      <stop offset="1" stop-color="#1E3A8A" stop-opacity="0"/>
    </radialGradient>
    <linearGradient id="glass" x1="429" y1="265" x2="1114" y2="836" gradientUnits="userSpaceOnUse">
      <stop stop-color="#1A2236" stop-opacity="0.9"/>
      <stop offset="1" stop-color="#0B1220" stop-opacity="0.58"/>
    </linearGradient>
    <linearGradient id="panelStroke" x1="0" y1="0" x2="1" y2="1">
      <stop stop-color="#94A3FF" stop-opacity="0.34"/>
      <stop offset="1" stop-color="#FFFFFF" stop-opacity="0.04"/>
    </linearGradient>
    <linearGradient id="screen" x1="585" y1="414" x2="1006" y2="575" gradientUnits="userSpaceOnUse">
      <stop stop-color="#0F1C32"/>
      <stop offset="1" stop-color="#152945"/>
    </linearGradient>
    <linearGradient id="card" x1="1204" y1="359" x2="1386" y2="647" gradientUnits="userSpaceOnUse">
      <stop stop-color="#111827"/>
      <stop offset="1" stop-color="#0B1220"/>
    </linearGradient>
    <linearGradient id="sideCard" x1="200" y1="372" x2="451" y2="652" gradientUnits="userSpaceOnUse">
      <stop stop-color="#101A2A"/>
      <stop offset="1" stop-color="#0A111C"/>
    </linearGradient>
    <filter id="sceneBlur" x="-160" y="-160" width="1920" height="1520" filterUnits="userSpaceOnUse" color-interpolation-filters="sRGB">
      <feGaussianBlur stdDeviation="20"/>
    </filter>
    <filter id="structureBlur" x="-240" y="-240" width="2080" height="1680" filterUnits="userSpaceOnUse" color-interpolation-filters="sRGB">
      <feGaussianBlur stdDeviation="28"/>
    </filter>
    <filter id="detailBlur" x="-140" y="-140" width="1880" height="1480" filterUnits="userSpaceOnUse" color-interpolation-filters="sRGB">
      <feGaussianBlur stdDeviation="11"/>
    </filter>
  </defs>

  <rect width="1600" height="1200" fill="url(#bg)"/>
  <rect width="1600" height="1200" fill="url(#topGlow)"/>
  <rect width="1600" height="1200" fill="url(#leftGlow)"/>
  <rect width="1600" height="1200" fill="url(#rightGlow)"/>

  <g opacity="0.2" filter="url(#sceneBlur)">
    <path d="M0 891C143 835 297 816 448 843C585 868 672 920 854 918C1092 916 1308 794 1600 825V1200H0V891Z" fill="#060A12"/>
    <path d="M0 1008C181 963 404 956 573 996C720 1030 857 1072 1039 1051C1217 1030 1398 966 1600 988V1200H0V1008Z" fill="#02050A"/>
  </g>

  <g opacity="0.18" filter="url(#sceneBlur)">
    <path d="M-54 175H1653" stroke="#94A3B8" stroke-width="3"/>
    <path d="M-54 250H1653" stroke="#94A3B8" stroke-width="2.4"/>
    <path d="M-54 325H1653" stroke="#64748B" stroke-width="2"/>
    <path d="M-54 400H1653" stroke="#64748B" stroke-width="2"/>
    <path d="M-54 475H1653" stroke="#64748B" stroke-width="2"/>
    <path d="M-54 550H1653" stroke="#475569" stroke-width="1.8"/>
    <path d="M-54 625H1653" stroke="#475569" stroke-width="1.8"/>
    <path d="M225 76V1136" stroke="#64748B" stroke-width="2"/>
    <path d="M415 76V1136" stroke="#475569" stroke-width="1.8"/>
    <path d="M605 76V1136" stroke="#475569" stroke-width="1.8"/>
    <path d="M795 76V1136" stroke="#475569" stroke-width="1.8"/>
    <path d="M985 76V1136" stroke="#475569" stroke-width="1.8"/>
    <path d="M1175 76V1136" stroke="#475569" stroke-width="1.8"/>
    <path d="M1365 76V1136" stroke="#64748B" stroke-width="2"/>
  </g>

  <g filter="url(#structureBlur)" opacity="0.95">
    <rect x="505" y="282" width="578" height="363" rx="50" fill="#0E1627" fill-opacity="0.84"/>
    <rect x="550" y="338" width="489" height="253" rx="31" fill="#101B2F" fill-opacity="0.88"/>
    <rect x="727" y="225" width="136" height="92" rx="26" fill="#15243B" fill-opacity="0.84"/>
    <rect x="781" y="184" width="28" height="118" rx="14" fill="#243758" fill-opacity="0.72"/>
    <rect x="1179" y="332" width="248" height="308" rx="36" fill="#0C1524" fill-opacity="0.8"/>
    <rect x="179" y="359" width="280" height="286" rx="38" fill="#0D1522" fill-opacity="0.82"/>
  </g>

  <g filter="url(#detailBlur)">
    <rect x="447" y="298" width="706" height="434" rx="54" fill="url(#glass)"/>
    <rect x="478" y="327" width="644" height="378" rx="40" stroke="url(#panelStroke)" stroke-width="2"/>

    <rect x="560" y="395" width="483" height="208" rx="34" fill="url(#screen)"/>
    <rect x="589" y="425" width="423" height="147" rx="26" fill="#0C172B" fill-opacity="0.96"/>
    <rect x="712" y="286" width="176" height="122" rx="24" fill="#111C31" fill-opacity="0.92"/>

    <rect x="764" y="412" width="34" height="151" rx="17" fill="#4F46E5" fill-opacity="0.76"/>
    <rect x="704" y="469" width="155" height="38" rx="19" fill="#4F46E5" fill-opacity="0.72"/>
    <rect x="692" y="474" width="178" height="28" rx="14" fill="#A5B4FC" fill-opacity="0.18"/>
    <rect x="676" y="337" width="34" height="22" rx="11" fill="#334155" fill-opacity="0.72"/>
    <rect x="888" y="337" width="34" height="22" rx="11" fill="#334155" fill-opacity="0.72"/>

    <circle cx="668" cy="640" r="42" fill="#CBD5E1" fill-opacity="0.12"/>
    <circle cx="668" cy="707" r="55" fill="#111B2E" fill-opacity="0.92"/>
    <circle cx="804" cy="640" r="42" fill="#CBD5E1" fill-opacity="0.12"/>
    <circle cx="804" cy="707" r="55" fill="#111B2E" fill-opacity="0.92"/>
    <circle cx="940" cy="640" r="42" fill="#CBD5E1" fill-opacity="0.12"/>
    <circle cx="940" cy="707" r="55" fill="#111B2E" fill-opacity="0.92"/>

    <rect x="181" y="360" width="294" height="296" rx="42" fill="url(#sideCard)"/>
    <rect x="214" y="399" width="226" height="38" rx="19" fill="#111D33"/>
    <rect x="214" y="460" width="88" height="79" rx="18" fill="#1D4ED8" fill-opacity="0.28"/>
    <rect x="316" y="460" width="124" height="79" rx="18" fill="#334155" fill-opacity="0.62"/>
    <rect x="214" y="554" width="226" height="17" rx="8.5" fill="#E2E8F0" fill-opacity="0.12"/>
    <rect x="214" y="589" width="188" height="17" rx="8.5" fill="#E2E8F0" fill-opacity="0.08"/>

    <rect x="1172" y="337" width="262" height="323" rx="42" fill="url(#card)"/>
    <rect x="1206" y="387" width="184" height="41" rx="20.5" fill="#101A2D"/>
    <rect x="1206" y="452" width="148" height="24" rx="12" fill="#E2E8F0" fill-opacity="0.14"/>
    <rect x="1206" y="503" width="192" height="24" rx="12" fill="#E2E8F0" fill-opacity="0.12"/>
    <rect x="1206" y="556" width="170" height="24" rx="12" fill="#E2E8F0" fill-opacity="0.1"/>
    <rect x="1206" y="608" width="126" height="24" rx="12" fill="#4F46E5" fill-opacity="0.3"/>
  </g>

  <rect width="1600" height="1200" fill="url(#topGlow)" opacity="0.18"/>
</svg>
