<svg width="1600" height="1200" viewBox="0 0 1600 1200" fill="none" xmlns="http://www.w3.org/2000/svg">
  <defs>
    <linearGradient id="bg" x1="132" y1="74" x2="1456" y2="1102" gradientUnits="userSpaceOnUse">
      <stop stop-color="#6E87A7"/>
      <stop offset="0.52" stop-color="#526B8A"/>
      <stop offset="1" stop-color="#24445D"/>
    </linearGradient>
    <radialGradient id="glowLeft" cx="0" cy="0" r="1" gradientUnits="userSpaceOnUse" gradientTransform="translate(324 252) rotate(34.17) scale(489.006 345.934)">
      <stop stop-color="#B9D8F9" stop-opacity="0.82"/>
      <stop offset="1" stop-color="#B9D8F9" stop-opacity="0"/>
    </radialGradient>
    <radialGradient id="glowRight" cx="0" cy="0" r="1" gradientUnits="userSpaceOnUse" gradientTransform="translate(1252 342) rotate(148.24) scale(514.642 369.323)">
      <stop stop-color="#A7F3D0" stop-opacity="0.38"/>
      <stop offset="1" stop-color="#A7F3D0" stop-opacity="0"/>
    </radialGradient>
    <linearGradient id="panel" x1="425" y1="278" x2="1119" y2="879" gradientUnits="userSpaceOnUse">
      <stop stop-color="#E8F1FB" stop-opacity="0.82"/>
      <stop offset="1" stop-color="#D3E0F2" stop-opacity="0.36"/>
    </linearGradient>
    <linearGradient id="glass" x1="0" y1="0" x2="1" y2="1">
      <stop stop-color="#FFFFFF" stop-opacity="0.34"/>
      <stop offset="1" stop-color="#FFFFFF" stop-opacity="0.08"/>
    </linearGradient>
    <filter id="softBlur" x="-120" y="-120" width="1840" height="1440" filterUnits="userSpaceOnUse" color-interpolation-filters="sRGB">
      <feGaussianBlur stdDeviation="22"/>
    </filter>
    <filter id="deepBlur" x="-220" y="-220" width="2040" height="1640" filterUnits="userSpaceOnUse" color-interpolation-filters="sRGB">
      <feGaussianBlur stdDeviation="34"/>
    </filter>
    <filter id="foregroundBlur" x="-180" y="-180" width="1960" height="1560" filterUnits="userSpaceOnUse" color-interpolation-filters="sRGB">
      <feGaussianBlur stdDeviation="14"/>
    </filter>
  </defs>

  <rect width="1600" height="1200" fill="url(#bg)"/>
  <rect width="1600" height="1200" fill="url(#glowLeft)"/>
  <rect width="1600" height="1200" fill="url(#glowRight)"/>

  <g opacity="0.22" filter="url(#softBlur)">
    <path d="M0 891C154 826 310 808 468 837C635 867 724 931 901 921C1127 909 1255 764 1600 784V1200H0V891Z" fill="#173044"/>
    <path d="M0 985C177 949 366 936 528 973C667 1004 790 1058 969 1040C1175 1020 1362 915 1600 965V1200H0V985Z" fill="#0D2232"/>
  </g>

  <g filter="url(#deepBlur)" opacity="0.92">
    <rect x="517" y="286" width="566" height="355" rx="46" fill="#E9F3FF" fill-opacity="0.72"/>
    <rect x="562" y="340" width="475" height="246" rx="28" fill="#CDDDF0" fill-opacity="0.76"/>
    <rect x="730" y="228" width="140" height="95" rx="24" fill="#D8E7F5" fill-opacity="0.72"/>
    <rect x="782" y="182" width="34" height="122" rx="17" fill="#E1EEF9" fill-opacity="0.74"/>
    <rect x="1189" y="331" width="245" height="300" rx="34" fill="#D3E9E3" fill-opacity="0.62"/>
    <rect x="1233" y="391" width="160" height="28" rx="14" fill="#F6FFFD" fill-opacity="0.72"/>
    <rect x="1233" y="443" width="132" height="24" rx="12" fill="#F6FFFD" fill-opacity="0.6"/>
    <rect x="1233" y="492" width="176" height="24" rx="12" fill="#F6FFFD" fill-opacity="0.6"/>
    <rect x="182" y="352" width="266" height="268" rx="36" fill="#D7E4F5" fill-opacity="0.56"/>
    <rect x="225" y="406" width="178" height="27" rx="13.5" fill="#FDFEFF" fill-opacity="0.7"/>
    <rect x="225" y="460" width="152" height="22" rx="11" fill="#FDFEFF" fill-opacity="0.58"/>
    <rect x="225" y="508" width="188" height="22" rx="11" fill="#FDFEFF" fill-opacity="0.58"/>
  </g>

  <g filter="url(#foregroundBlur)">
    <rect x="448" y="300" width="704" height="434" rx="52" fill="url(#panel)"/>
    <rect x="479" y="327" width="642" height="378" rx="40" stroke="url(#glass)" stroke-width="2"/>

    <rect x="558" y="394" width="484" height="209" rx="34" fill="#557294" fill-opacity="0.66"/>
    <rect x="589" y="425" width="423" height="147" rx="26" fill="#DDE9F6" fill-opacity="0.64"/>
    <rect x="709" y="287" width="183" height="123" rx="26" fill="#E2ECF8" fill-opacity="0.64"/>

    <rect x="676" y="339" width="36" height="22" rx="11" fill="#51739C" fill-opacity="0.65"/>
    <rect x="891" y="339" width="36" height="22" rx="11" fill="#51739C" fill-opacity="0.65"/>

    <rect x="693" y="474" width="176" height="28" rx="14" fill="#7EA2BF" fill-opacity="0.7"/>
    <rect x="760" y="413" width="42" height="151" rx="21" fill="#6C92B5" fill-opacity="0.72"/>
    <rect x="704" y="467" width="155" height="42" rx="21" fill="#6C92B5" fill-opacity="0.72"/>

    <circle cx="670" cy="642" r="42" fill="#E6EEF9" fill-opacity="0.62"/>
    <circle cx="671" cy="709" r="56" fill="#698CAF" fill-opacity="0.56"/>
    <circle cx="806" cy="642" r="42" fill="#E6EEF9" fill-opacity="0.62"/>
    <circle cx="806" cy="709" r="56" fill="#698CAF" fill-opacity="0.56"/>
    <circle cx="942" cy="642" r="42" fill="#E6EEF9" fill-opacity="0.62"/>
    <circle cx="942" cy="709" r="56" fill="#698CAF" fill-opacity="0.56"/>

    <rect x="180" y="360" width="294" height="296" rx="42" fill="#D7E7F7" fill-opacity="0.52"/>
    <rect x="214" y="400" width="225" height="37" rx="18.5" fill="#F5FAFF" fill-opacity="0.7"/>
    <rect x="214" y="460" width="86" height="78" rx="18" fill="#6D92B6" fill-opacity="0.52"/>
    <rect x="314" y="460" width="125" height="78" rx="18" fill="#7BA89F" fill-opacity="0.44"/>
    <rect x="214" y="554" width="225" height="18" rx="9" fill="#F5FAFF" fill-opacity="0.58"/>
    <rect x="214" y="590" width="188" height="18" rx="9" fill="#F5FAFF" fill-opacity="0.46"/>

    <rect x="1167" y="338" width="262" height="322" rx="42" fill="#D2ECE4" fill-opacity="0.48"/>
    <rect x="1204" y="386" width="185" height="40" rx="20" fill="#F7FFFD" fill-opacity="0.7"/>
    <rect x="1204" y="452" width="147" height="24" rx="12" fill="#F7FFFD" fill-opacity="0.54"/>
    <rect x="1204" y="503" width="192" height="24" rx="12" fill="#F7FFFD" fill-opacity="0.54"/>
    <rect x="1204" y="556" width="168" height="24" rx="12" fill="#F7FFFD" fill-opacity="0.48"/>
    <rect x="1204" y="608" width="126" height="24" rx="12" fill="#F7FFFD" fill-opacity="0.42"/>
  </g>

  <g opacity="0.18" filter="url(#softBlur)">
    <path d="M-75 186H1662" stroke="#F8FBFF" stroke-width="4"/>
    <path d="M-75 258H1662" stroke="#F8FBFF" stroke-width="3"/>
    <path d="M-75 330H1662" stroke="#F8FBFF" stroke-width="2.5"/>
    <path d="M-75 402H1662" stroke="#F8FBFF" stroke-width="2.5"/>
    <path d="M-75 474H1662" stroke="#F8FBFF" stroke-width="2.5"/>
    <path d="M-75 546H1662" stroke="#F8FBFF" stroke-width="2.5"/>
    <path d="M-75 618H1662" stroke="#F8FBFF" stroke-width="2.5"/>
    <path d="M-75 690H1662" stroke="#F8FBFF" stroke-width="2.5"/>
    <path d="M214 72V1138" stroke="#F8FBFF" stroke-width="2.5"/>
    <path d="M402 72V1138" stroke="#F8FBFF" stroke-width="2"/>
    <path d="M590 72V1138" stroke="#F8FBFF" stroke-width="2"/>
    <path d="M778 72V1138" stroke="#F8FBFF" stroke-width="2"/>
    <path d="M966 72V1138" stroke="#F8FBFF" stroke-width="2"/>
    <path d="M1154 72V1138" stroke="#F8FBFF" stroke-width="2"/>
    <path d="M1342 72V1138" stroke="#F8FBFF" stroke-width="2.5"/>
  </g>

  <rect width="1600" height="1200" fill="url(#glowLeft)" opacity="0.22"/>
  <rect width="1600" height="1200" fill="url(#glowRight)" opacity="0.28"/>
</svg>
