<svg width="1600" height="1800" viewBox="0 0 1600 1800" fill="none" xmlns="http://www.w3.org/2000/svg">
  <defs>
    <linearGradient id="base" x1="116" y1="88" x2="1508" y2="1712" gradientUnits="userSpaceOnUse">
      <stop stop-color="#F5FAFE"/>
      <stop offset="0.28" stop-color="#EDF4FA"/>
      <stop offset="0.58" stop-color="#E3ECF3"/>
      <stop offset="1" stop-color="#D5DEE8"/>
    </linearGradient>
    <linearGradient id="ceiling" x1="800" y1="0" x2="800" y2="720" gradientUnits="userSpaceOnUse">
      <stop stop-color="#F8FCFF"/>
      <stop offset="0.5" stop-color="#EEF5FB"/>
      <stop offset="1" stop-color="#DDE6EE"/>
    </linearGradient>
    <linearGradient id="floor" x1="800" y1="936" x2="800" y2="1800" gradientUnits="userSpaceOnUse">
      <stop stop-color="#D7E1EA" stop-opacity="0.18"/>
      <stop offset="0.42" stop-color="#C5D1DD" stop-opacity="0.42"/>
      <stop offset="1" stop-color="#AAB8C8" stop-opacity="0.7"/>
    </linearGradient>
    <linearGradient id="leftWall" x1="0" y1="224" x2="738" y2="1030" gradientUnits="userSpaceOnUse">
      <stop stop-color="#F8FCFF"/>
      <stop offset="0.36" stop-color="#EEF6FC"/>
      <stop offset="1" stop-color="#DCE8F2"/>
    </linearGradient>
    <linearGradient id="rightWall" x1="1600" y1="168" x2="944" y2="1188" gradientUnits="userSpaceOnUse">
      <stop stop-color="#D9E3EC"/>
      <stop offset="0.56" stop-color="#C7D2DE"/>
      <stop offset="1" stop-color="#B3C0CE"/>
    </linearGradient>
    <linearGradient id="centerGlass" x1="800" y1="232" x2="800" y2="1260" gradientUnits="userSpaceOnUse">
      <stop stop-color="#F9FCFF" stop-opacity="0.7"/>
      <stop offset="0.5" stop-color="#E6EFF6" stop-opacity="0.46"/>
      <stop offset="1" stop-color="#D3DFEA" stop-opacity="0.3"/>
    </linearGradient>
    <linearGradient id="desk" x1="1114" y1="1020" x2="1114" y2="1398" gradientUnits="userSpaceOnUse">
      <stop stop-color="#E4ECF3" stop-opacity="0.82"/>
      <stop offset="1" stop-color="#BCC9D6" stop-opacity="0.96"/>
    </linearGradient>
    <linearGradient id="rightShade" x1="810" y1="0" x2="1600" y2="0" gradientUnits="userSpaceOnUse">
      <stop stop-color="#E0E8F0" stop-opacity="0"/>
      <stop offset="0.54" stop-color="#B9C5D1" stop-opacity="0.08"/>
      <stop offset="1" stop-color="#728194" stop-opacity="0.24"/>
    </linearGradient>
    <radialGradient id="daylight" cx="0" cy="0" r="1" gradientUnits="userSpaceOnUse" gradientTransform="translate(300 338) rotate(41.6071) scale(768 956)">
      <stop stop-color="#FFFFFF"/>
      <stop offset="0.38" stop-color="#EFF7FE" stop-opacity="0.84"/>
      <stop offset="1" stop-color="#EFF7FE" stop-opacity="0"/>
    </radialGradient>
    <radialGradient id="windowGlow" cx="0" cy="0" r="1" gradientUnits="userSpaceOnUse" gradientTransform="translate(250 616) rotate(90) scale(544 412)">
      <stop stop-color="#FDFEFF"/>
      <stop offset="0.48" stop-color="#EAF4FD" stop-opacity="0.76"/>
      <stop offset="1" stop-color="#EAF4FD" stop-opacity="0"/>
    </radialGradient>
    <radialGradient id="farGlow" cx="0" cy="0" r="1" gradientUnits="userSpaceOnUse" gradientTransform="translate(810 568) rotate(90) scale(372 262)">
      <stop stop-color="#FFFFFF"/>
      <stop offset="0.56" stop-color="#EDF5FB" stop-opacity="0.72"/>
      <stop offset="1" stop-color="#EDF5FB" stop-opacity="0"/>
    </radialGradient>
    <radialGradient id="floorGlow" cx="0" cy="0" r="1" gradientUnits="userSpaceOnUse" gradientTransform="translate(716 1348) rotate(90) scale(520 816)">
      <stop stop-color="#F5FAFE" stop-opacity="0.42"/>
      <stop offset="1" stop-color="#F5FAFE" stop-opacity="0"/>
    </radialGradient>
    <filter id="blurXXL" x="-240" y="-240" width="2080" height="2280" filterUnits="userSpaceOnUse" color-interpolation-filters="sRGB">
      <feGaussianBlur stdDeviation="68"/>
    </filter>
    <filter id="blurXL" x="-160" y="-160" width="1920" height="2120" filterUnits="userSpaceOnUse" color-interpolation-filters="sRGB">
      <feGaussianBlur stdDeviation="40"/>
    </filter>
    <filter id="blurL" x="-120" y="-120" width="1840" height="2040" filterUnits="userSpaceOnUse" color-interpolation-filters="sRGB">
      <feGaussianBlur stdDeviation="24"/>
    </filter>
    <filter id="blurM" x="-80" y="-80" width="1760" height="1960" filterUnits="userSpaceOnUse" color-interpolation-filters="sRGB">
      <feGaussianBlur stdDeviation="14"/>
    </filter>
    <filter id="blurS" x="-60" y="-60" width="1720" height="1920" filterUnits="userSpaceOnUse" color-interpolation-filters="sRGB">
      <feGaussianBlur stdDeviation="8"/>
    </filter>
  </defs>

  <rect width="1600" height="1800" fill="url(#base)"/>
  <rect width="1600" height="820" fill="url(#ceiling)" opacity="0.88"/>
  <path d="M0 0H880L980 780L0 996V0Z" fill="url(#leftWall)" opacity="0.9"/>
  <path d="M920 0H1600V1110L1040 780L920 0Z" fill="url(#rightWall)" opacity="0.88"/>
  <path d="M0 1016L1600 868V1800H0V1016Z" fill="url(#floor)"/>
  <rect width="1600" height="1800" fill="url(#rightShade)"/>
  <ellipse cx="292" cy="362" rx="610" ry="534" fill="url(#daylight)"/>
  <ellipse cx="246" cy="632" rx="398" ry="510" fill="url(#windowGlow)"/>
  <ellipse cx="810" cy="570" rx="284" ry="362" fill="url(#farGlow)"/>
  <ellipse cx="748" cy="1360" rx="814" ry="418" fill="url(#floorGlow)"/>

  <g filter="url(#blurXXL)" opacity="0.94">
    <rect x="64" y="220" width="402" height="760" rx="54" fill="#F8FCFF"/>
    <rect x="498" y="186" width="146" height="1110" rx="40" fill="#D1DEEA"/>
    <rect x="710" y="236" width="228" height="694" rx="52" fill="#FAFDFF"/>
    <rect x="1036" y="214" width="462" height="930" rx="58" fill="#D6E0E9"/>
  </g>

  <g filter="url(#blurXL)" opacity="0.84">
    <rect x="118" y="284" width="280" height="616" rx="42" fill="#FFFFFF"/>
    <rect x="176" y="338" width="164" height="502" rx="30" fill="#E4F1FC"/>
    <rect x="558" y="152" width="26" height="1148" rx="13" fill="#C5D6E5"/>
    <rect x="774" y="206" width="116" height="720" rx="40" fill="#EEF6FC"/>
    <rect x="1116" y="314" width="242" height="664" rx="44" fill="#E5EDF4"/>
    <rect x="1288" y="392" width="106" height="438" rx="28" fill="#C4D0DB"/>
  </g>

  <g filter="url(#blurL)" opacity="0.86">
    <rect x="206" y="132" width="300" height="68" rx="30" fill="#FFFFFF"/>
    <rect x="620" y="118" width="256" height="62" rx="28" fill="#FFFFFF"/>
    <rect x="1056" y="144" width="274" height="64" rx="30" fill="#FDFEFF"/>
    <rect x="714" y="292" width="188" height="500" rx="42" fill="#FFFFFF"/>
    <rect x="740" y="330" width="138" height="426" rx="30" fill="#E9F3FA"/>
    <rect x="932" y="256" width="40" height="970" rx="20" fill="#C7D5E3"/>
    <rect x="1016" y="1030" width="520" height="312" rx="58" fill="url(#desk)"/>
    <rect x="1056" y="968" width="118" height="64" rx="18" fill="#AFC1D1"/>
    <rect x="1216" y="948" width="134" height="74" rx="20" fill="#AABCCD"/>
    <rect x="1406" y="972" width="88" height="68" rx="18" fill="#AAB8C7"/>
  </g>

  <g filter="url(#blurM)" opacity="0.82">
    <path d="M564 232H932V1186H564V232Z" fill="url(#centerGlass)"/>
    <rect x="108" y="990" width="446" height="248" rx="42" fill="#E8F0F7"/>
    <rect x="188" y="942" width="140" height="58" rx="16" fill="#B7CBDB"/>
    <rect x="284" y="1234" width="122" height="244" rx="28" fill="#B7C8D8"/>
    <rect x="1090" y="1314" width="132" height="204" rx="28" fill="#B7C8D7"/>
    <rect x="1312" y="1322" width="116" height="210" rx="30" fill="#B2C2D1"/>
  </g>

  <g filter="url(#blurS)" opacity="0.74">
    <ellipse cx="288" cy="1568" rx="276" ry="58" fill="#E5EDF5"/>
    <ellipse cx="786" cy="1510" rx="356" ry="74" fill="#EAF2F9"/>
    <ellipse cx="1262" cy="1524" rx="292" ry="68" fill="#D6E1EB"/>
    <rect x="1104" y="622" width="126" height="198" rx="32" fill="#D8E2EA"/>
    <rect x="1310" y="610" width="98" height="222" rx="28" fill="#CDD9E4"/>
  </g>

  <rect width="1600" height="1800" fill="url(#daylight)" opacity="0.22"/>
</svg>
